# xmcd
#
# Track frame offsets: 
#        150
#        13653
#        25333
#        39226
#        54269
#        67119
#        78120
#        94131
#        106763
#        122521
#
# Disc length: 1817 seconds
#
# Revision: 1
# Processed by: cddbd v1.5.2PL0 Copyright (c) Steve Scherf et al.
# Submitted via: ExactAudioCopyFreeDBPlugin 1.0
#
DISCID=6f07170a
DTITLE=Glen Campbell - 1977 - Southern Nights
DYEAR=1977
DGENRE=Folk
TTITLE0=Southern Nights
TTITLE1=This Is Sarah's Song
TTITLE2=For Cryin' Out Loud
TTITLE3=God Only Knows
TTITLE4=Sunflower
TTITLE5=Guide Me
TTITLE6=Early Morning Song
TTITLE7=(I'm Getting) Used To The Crying
TTITLE8=Let Go
TTITLE9=How High Did We Go
EXTD=
EXTT0=
EXTT1=
EXTT2=
EXTT3=
EXTT4=
EXTT5=
EXTT6=
EXTT7=
EXTT8=
EXTT9=
PLAYORDER=
